<svg width="12" height="13" viewBox="0 0 12 13" fill="none" xmlns="http://www.w3.org/2000/svg">
<path fill-rule="evenodd" clip-rule="evenodd" d="M4.90036 9.08741L6 8.33337L7.09964 9.08741L6 10.6911L4.90036 9.08741ZM6.77363 7.07181C6.35948 7.80913 6 8.33337 6 8.33337C6 8.33337 5.64052 7.80913 5.22637 7.07181C4.66365 6.06999 4 4.67478 4 3.66671C4 2.66671 4.89429 1.66671 6 1.66671C7.10571 1.66671 8 2.66671 8 3.66671C8 4.67478 7.33635 6.06999 6.77363 7.07181ZM2.66667 3.66671C2.66667 1.97582 4.11323 0.333374 6 0.333374C7.88677 0.333374 9.33333 1.97582 9.33333 3.66671C9.33333 4.32862 9.15081 5.00725 8.94166 5.58678C8.72609 6.18409 8.44644 6.77195 8.17933 7.27835C7.91052 7.78797 7.64339 8.23578 7.44399 8.55564C7.3439 8.7162 7.25991 8.84608 7.20001 8.93717C7.17004 8.98275 7.14604 9.01872 7.12899 9.04408L7.10875 9.07405L7.10275 9.08286L7.10083 9.08567L7.10014 9.08668L7.09987 9.08708C7.09975 9.08725 7.09964 9.08741 6 8.33337C4.90036 9.08741 4.90025 9.08725 4.90013 9.08708L4.89986 9.08668L4.89917 9.08567L4.89725 9.08286L4.89125 9.07405L4.87101 9.04408C4.85396 9.01872 4.82996 8.98275 4.79999 8.93717C4.74009 8.84608 4.6561 8.7162 4.55601 8.55564C4.35661 8.23578 4.08948 7.78797 3.82067 7.27835C3.55356 6.77195 3.27391 6.18409 3.05834 5.58678C2.84919 5.00725 2.66667 4.32862 2.66667 3.66671ZM2 9.66671H4.66667L6 11.6667L7.33333 9.66671H10L12 13H0L2 9.66671ZM6 4.66671C6.55229 4.66671 7 4.21899 7 3.66671C7 3.11442 6.55229 2.66671 6 2.66671C5.44772 2.66671 5 3.11442 5 3.66671C5 4.21899 5.44772 4.66671 6 4.66671Z" fill="#4D4E65"/>
</svg>
