<svg width="16" height="16" viewBox="0 0 16 16" fill="none" xmlns="http://www.w3.org/2000/svg">
<path fill-rule="evenodd" clip-rule="evenodd" d="M11.334 1.99998V0.866974L10.3436 1.41721L4.49457 4.66665H4.00065H2.66732H1.33398V5.99998V9.99998V11.3333H2.66732H4.00065H4.49457L10.3436 14.5828L11.334 15.133V14V1.99998ZM5.33398 10.2744L10.0007 12.867V3.13299L5.33398 5.72559V5.99998V9.99998V10.2744ZM2.66732 5.99998H4.00065V9.99998H2.66732V5.99998ZM12.1994 9.53205C13.0455 8.68592 13.0455 7.31406 12.1994 6.46793L12.9065 5.76082C14.1431 6.99748 14.1431 9.0025 12.9065 10.2392L12.1994 9.53205ZM13.0948 4.90583C14.8037 6.61469 14.8037 9.38529 13.0948 11.0942L13.8019 11.8013C15.9013 9.70187 15.9013 6.2981 13.8019 4.19872L13.0948 4.90583Z" fill="white"/>
</svg>
