<svg width="24" height="24" viewBox="0 0 24 24" fill="none" xmlns="http://www.w3.org/2000/svg">
<path fill-rule="evenodd" clip-rule="evenodd" d="M17 1.30048V2.99999V21V22.6995L15.5144 21.8741L6.74087 17H6H4H2V15V8.99999V6.99999H4H6H6.74087L15.5144 2.12583L17 1.30048ZM15 19.3005L8 15.4116V15V8.99999V8.58839L15 4.69951V19.3005ZM6 8.99999H4V15H6V8.99999ZM18.4697 10.5303L19.9393 12L18.4697 13.4697L19.5303 14.5303L21 13.0607L22.4697 14.5303L23.5303 13.4697L22.0607 12L23.5303 10.5303L22.4697 9.46967L21 10.9393L19.5303 9.46967L18.4697 10.5303Z" fill="current"/>
</svg>
