<svg width="20" height="20" viewBox="0 0 20 20" fill="none" xmlns="http://www.w3.org/2000/svg">
<path fill-rule="evenodd" clip-rule="evenodd" d="M10.0007 1.6665C7.46854 1.6665 5.41732 3.71773 5.41732 6.24984C5.41732 8.78195 7.46854 10.8332 10.0007 10.8332C12.5328 10.8332 14.584 8.78195 14.584 6.24984C14.584 3.71773 12.5328 1.6665 10.0007 1.6665ZM7.08398 6.24984C7.08398 4.6382 8.38901 3.33317 10.0007 3.33317C11.6123 3.33317 12.9173 4.6382 12.9173 6.24984C12.9173 7.86147 11.6123 9.1665 10.0007 9.1665C8.38901 9.1665 7.08398 7.86147 7.08398 6.24984ZM10.0007 12.0832C8.85627 12.0832 7.27196 12.5526 6.00737 13.1309C5.36548 13.4244 4.7538 13.7692 4.28778 14.1381C4.05539 14.3221 3.83353 14.532 3.66331 14.767C3.49736 14.996 3.33398 15.3136 3.33398 15.6943V17.0832V17.9165H5.00065V17.0832V15.7625C5.00405 15.7574 5.0081 15.7515 5.01292 15.7449C5.06285 15.676 5.15983 15.5734 5.32222 15.4449C5.64574 15.1888 6.12736 14.9086 6.70044 14.6466C7.8658 14.1137 9.19815 13.7498 10.0007 13.7498C10.8031 13.7498 12.1355 14.1137 13.3009 14.6466C13.8739 14.9086 14.3556 15.1888 14.6791 15.4449C14.8415 15.5734 14.9385 15.676 14.9884 15.7449C14.9932 15.7515 14.9973 15.7574 15.0007 15.7625V17.0832V17.9165H16.6673V17.0832V15.6943C16.6673 15.3136 16.5039 14.996 16.338 14.767C16.1678 14.532 15.9459 14.3221 15.7135 14.1381C15.2475 13.7692 14.6358 13.4244 13.9939 13.1309C12.7293 12.5526 11.145 12.0832 10.0007 12.0832ZM15.0154 15.7876L15.0161 15.789L15.0148 15.7861L15.0154 15.7876Z" fill="#999C9E"/>
</svg>
